PathFileType	4	(X/Y/Z)	Patient4_TMGait_0pt2_03_right_07.trc.trc
DataRate	CameraRate	NumFrames	NumMarkers	Units	OrigDataRate	OrigDataStartFrame	OrigNumFrames
45.602605863192	45.602605863192	4	33	mm	45.602605863192	106	       141
Frame#	Time	Sacral			L.Shoulder			Chest			R.Shoulder			Neck			R.ASIS			L.ASIS			R.Thigh.Superior			R.Thigh.Lateral			R.Thigh.Inferior			R.Patella			L.Thigh.Superior			L.Thigh.Lateral			L.Thigh.Inferior			L.Patella			L.Shank.Superior			L.Shank.Lateral			L.Shank.Inferior			R.Shank.Superior			R.Shank.Lateral			R.Shank.Inferior			R.Heel			R.Midfoot.Superior			R.Midfoot.Lateral			R.Toe			L.Heel			L.Midfoot.Lateral			L.Midfoot.Superior			L.Toe			L.Elbow			L.Wrist			R.Elbow			R.Wrist			
		X1	Y1	Z1	X2	Y2	Z2	X3	Y3	Z3	X4	Y4	Z4	X5	Y5	Z5	X6	Y6	Z6	X7	Y7	Z7	X8	Y8	Z8	X9	Y9	Z9	X10	Y10	Z10	X11	Y11	Z11	X12	Y12	Z12	X13	Y13	Z13	X14	Y14	Z14	X15	Y15	Z15	X16	Y16	Z16	X17	Y17	Z17	X18	Y18	Z18	X19	Y19	Z19	X20	Y20	Z20	X21	Y21	Z21	X22	Y22	Z22	X23	Y23	Z23	X24	Y24	Z24	X25	Y25	Z25	X26	Y26	Z26	X27	Y27	Z27	X28	Y28	Z28	X29	Y29	Z29	X30	Y30	Z30	X31	Y31	Z31	X32	Y32	Z32	X33	Y33	Z33	

106	17.142500000000	746.396142058351	999.770771433441	404.083362738169	973.981637546861	1419.952737190182	247.329824379085	1042.260373705092	1351.725279354059	424.898453869426	933.077228167864	1429.286927204354	581.486691611246	922.068869749687	1485.913730582958	400.841959062264	958.646341453271	939.091738856951	555.558694301257	985.003643013669	947.285903151918	280.975639614529	1040.888998719171	761.066320224412	530.572563777702	989.693876523125	644.087682013073	603.346444506446	1079.467328433787	596.427564339660	529.518770678601	1091.703451027523	486.087001732673	557.538165737398	1038.607671897122	745.155375822548	321.713517966838	970.051967741224	617.966438795719	257.353474155812	1053.971528865557	552.559214303694	333.850790040950	1059.177162185573	479.186385978894	344.210608383993	1022.249910370246	402.977842099682	335.224159719963	926.310600179217	298.594673606370	275.191538539798	951.654465350466	184.320682232860	351.721436695168	1015.020956310182	413.672589277049	571.932487623485	898.032401909637	379.536746571296	645.058396680779	877.556914035027	267.857554816992	602.177845841040	671.613656731381	210.472118957108	600.103005549687	843.760223880844	147.099098814155	621.655458578727	737.057206528835	146.409052025083	664.302276739343	909.199522539073	34.832631979434	633.832407231923	804.610726798962	38.665693856256	381.978977060692	882.275428035140	35.425736234229	304.768854547605	965.041235385129	95.362463604214	337.483288599362	1094.362432597363	41.545749127092	313.287128714368	1076.117056077912	1091.812137731592	111.113190497914	1303.874721020821	964.503203329015	137.032002825053	817.695228701630	1095.132723311773	687.828921068942	822.908947697562	835.044838210949	703.956963095100	
107	17.164428571429	745.183541597484	1001.130839174795	401.357455348964	976.387923069863	1420.574325537328	246.800851200545	1041.881070792082	1352.580386105576	425.402838987607	930.671582046464	1430.869337325914	580.263593713780	922.499684144671	1486.836202046017	399.612530457246	955.860793279970	940.411497343383	555.179155778130	984.710003120498	948.000225295874	280.863666386915	1040.249782202592	764.591299621714	529.397260289949	990.800507089772	646.903197152613	602.333574971863	1080.889381411153	600.368712952562	528.360000523312	1095.367650928643	490.676906634545	556.393326543873	1036.477522966559	744.832855007065	320.875517601465	966.514254215680	618.373653361897	256.341641925416	1049.364918954929	552.253899301257	333.109247020599	1053.966469092807	479.240416177665	343.679168955240	1017.181744939895	403.131948301371	334.589321177996	921.588209817153	298.479749173097	274.547662944856	946.928049535451	184.383566346898	351.427830487014	1020.551973197649	416.728119168758	570.892630093788	905.081743662704	379.360745015289	644.119939221131	887.932309738527	267.469424528292	601.193987088994	684.592832771538	202.913510792122	598.996353427652	858.294834657138	147.335528634963	621.097876441707	752.243644841896	142.658612374564	663.860740810334	927.932406284505	37.377198024265	634.468754220744	800.127906326374	38.628327245935	381.884753806523	877.832907133340	35.363392869647	304.664836841045	960.577081078606	95.331774933534	337.365748482452	1089.919534516250	41.572890726820	313.265615558241	1082.935667190050	1094.809894116770	109.877064645567	1318.477405735854	983.069687678279	136.770917761194	798.752708232307	1103.521322991407	683.102242517439	787.382025812592	843.094779176881	698.146439751887	
108	17.186357142857	744.268145837638	1003.320627694099	398.975833597275	978.849131465592	1421.988197615527	246.699887406111	1041.549935833979	1354.250528652655	426.267250563792	928.388141248464	1433.350961087311	579.332540303370	922.886787488980	1488.488032379654	398.750164490529	953.123106228627	942.412609683393	555.275266010547	984.556764290852	949.484143683663	281.334031028593	1038.592754324666	767.948250704321	529.114322307570	989.901298390918	649.921091609672	602.181749786302	1080.064238696930	604.007869374119	528.255408218910	1096.550232003721	495.532905339663	556.125008591902	1033.753199899417	744.751374857782	320.540530280535	962.005436453297	619.340005923624	255.467486101023	1043.487693548121	552.172258186925	332.422122086351	1047.241396318975	479.613797224620	343.090754735816	1010.893850845779	403.764833735473	333.848274673497	915.951702146588	298.575106016212	273.846086159142	941.762402031346	184.718663358308	351.055031140417	1024.535989882593	419.847922697156	570.682535935069	911.552155476551	377.796327797697	644.112584774053	899.196346170055	265.792334761810	600.967352394681	699.924464768793	191.248185866200	598.782499850298	875.426643522014	146.229885226521	621.148221186722	770.523576309347	135.984075288364	664.137768994371	950.622803948538	40.481247666623	635.424182702815	795.624237399421	38.593971450815	381.794678629096	873.367107659032	35.302890122833	304.566068030087	956.089174138481	95.325677291376	337.205557388820	1085.454486881732	41.621320720476	313.239955150502	1089.378334130713	1098.740659426284	108.868176428879	1331.473986714617	1002.868851403981	136.802840669820	781.323582509041	1113.202652707769	678.379183059632	755.600721499656	853.312957832828	691.792453662360	
109	17.208285714286	743.640244232178	1006.195905119185	396.949496252247	981.357179500560	1424.071079135797	246.983739360106	1041.263375316985	1356.602146389644	427.444499115780	926.230350585541	1436.585773013353	578.661884352170	923.210949493069	1490.737908469740	398.220232002129	950.458867239541	944.984183254893	555.817625763854	984.538020799647	951.589453477677	282.345169239858	1035.987365815643	770.967502301584	529.720276553319	987.087980756183	652.974319136767	602.902439426052	1077.071891368880	607.165112143965	529.168536325629	1095.286188149160	500.465021419192	556.697651132593	1030.493846131081	744.855759810017	320.781015679672	956.718729752981	620.765290375244	254.776973506045	1036.541635950604	552.270732169566	331.872722873502	1039.229598981085	480.242579335949	342.520031706516	1003.587988985188	404.798455990733	333.063810766475	909.553973528005	298.854607706713	273.127384146073	936.229763705525	185.281783943509	350.633851655286	1026.991897534147	422.927784899545	571.303972469912	917.511001418234	374.954429107874	645.080317550382	911.250206272388	263.034225199430	601.557286976868	717.601309126135	176.241797557060	599.567891920239	894.854049747328	144.007255252138	621.882829153827	791.644945497918	126.921813611717	665.194932639022	976.586128963158	44.127657917065	636.707604969614	791.107877145261	38.562650674154	381.711277966048	868.882942059699	35.245799877326	304.475533346770	951.583429698748	95.341169084129	337.016962946826	1080.972664152441	41.688364073885	313.212680481815	1095.527286432986	1103.498551034179	108.089843936510	1342.894024054628	1023.587905500051	137.160641987210	765.583198100929	1123.750587893065	673.762793206748	727.830095979658	864.929449428680	685.165540848906	
